<?xml version="1.0" encoding="UTF-8"?>
<!DOCTYPE svg PUBLIC "-//W3C//DTD SVG 1.1//EN" "http://www.w3.org/Graphics/SVG/1.1/DTD/svg11.dtd">
<!-- Creator: CorelDRAW -->
<svg xmlns="http://www.w3.org/2000/svg" xml:space="preserve" width="2048px" height="2048px" style="shape-rendering:geometricPrecision; text-rendering:geometricPrecision; image-rendering:optimizeQuality; fill-rule:evenodd; clip-rule:evenodd"
viewBox="0 0 2048 2048"
 xmlns:xlink="http://www.w3.org/1999/xlink">
 <defs>
  <style type="text/css">
   <![CDATA[
    .fil2 {fill:none}
    .fil4 {fill:#039BE5}
    .fil3 {fill:#29B6F6}
    .fil1 {fill:#546E7A}
    .fil0 {fill:#90A4AE}
   ]]>
  </style>
   <clipPath id="id0">
    <path d="M1024 -0.0011811c565.539,0 1024,458.462 1024,1024 0,565.539 -458.462,1024 -1024,1024 -565.539,0 -1024,-458.462 -1024,-1024 0,-565.539 458.462,-1024 1024,-1024z"/>
   </clipPath>
 </defs>
 <g id="Layer_x0020_1">
  <metadata id="CorelCorpID_0Corel-Layer"/>
  <path class="fil0" d="M1024 -0.0011811c565.539,0 1024,458.462 1024,1024 0,565.539 -458.462,1024 -1024,1024 -565.539,0 -1024,-458.462 -1024,-1024 0,-565.539 458.462,-1024 1024,-1024z"/>
  <g style="clip-path:url(#id0)">
   <g id="_466488992">
    <g>
     <polygon id="_3968006801" class="fil1" points="1584,710.424 2719.88,1846.31 2718.06,1847.41 1582.18,711.532 "/>
     <polygon id="_396802024" class="fil1" points="1582.18,711.532 2718.06,1847.41 2718.06,2473.46 1582.18,1337.58 "/>
     <polygon id="_396818992" class="fil1" points="1582.18,1337.58 2718.06,2473.46 1599.88,2473.46 464,1337.58 "/>
    </g>
    <polygon id="_466497992" class="fil1" points="464,713.421 1584,710.424 1582.18,711.532 1582.18,1337.58 464,1337.58 "/>
   </g>
  </g>
  <path class="fil2" d="M1024 -0.0011811c565.539,0 1024,458.462 1024,1024 0,565.539 -458.462,1024 -1024,1024 -565.539,0 -1024,-458.462 -1024,-1024 0,-565.539 458.462,-1024 1024,-1024z"/>
  <polygon class="fil3" points="1584,710.423 464,713.421 1018.76,1054.61 "/>
  <polygon class="fil4" points="464,713.421 464,1337.58 1582.18,1337.58 1582.18,711.29 1033.55,1032.09 1021.3,1039.25 1009.05,1032.09 "/>
 </g>
</svg>
